<svg viewBox="0 0 50 50" xml:space="preserve" xmlns="http://www.w3.org/2000/svg"><path fill="none" d="M0 0h50v50H0z"></path><circle cx="43" cy="21" r="2" fill="#ffffff" class="fill-000000"></circle><path d="M40 15V1H10v14M40 29v20H10V29h30z" fill="none" stroke="#ffffff" stroke-linecap="round" stroke-miterlimit="10" stroke-width="2" class="stroke-000000"></path><path d="M10 40H3a2 2 0 0 1-2-2V17a2 2 0 0 1 2-2h44a2 2 0 0 1 2 2v21a2 2 0 0 1-2 2h-7M35 35H15M31 39H15M35 43H15" fill="none" stroke="#ffffff" stroke-linecap="round" stroke-miterlimit="10" stroke-width="2" class="stroke-000000"></path></svg>